<svg width="19" height="19" viewBox="0 0 19 19" fill="none" xmlns="http://www.w3.org/2000/svg">
<path d="M7.13982 0C5.83521 0 4.76779 1.06875 4.76779 2.375V4.75H0.237203C0.0948814 4.75 0.0237203 4.845 0.0237203 4.96375V10.6875C0.0237203 11.3525 0.545568 11.875 1.20974 11.875H17.814C18.4782 11.875 19 11.3525 19 10.6875V4.96375C19 4.82125 18.9051 4.75 18.7865 4.75H14.2559V2.375C14.2559 1.06875 13.1885 0 11.8839 0L7.13982 0ZM7.13982 2.375H11.8839V4.75H7.13982V2.375ZM0.0237203 14.0362V18.7862C0.0237203 18.905 0.118602 19 0.237203 19H18.7628C18.8814 19 18.9763 18.905 18.9763 18.7862V14.0362C18.5968 14.1788 18.2172 14.25 17.7903 14.25H1.18602C0.759051 14.25 0.379526 14.155 0 14.0362H0.0237203Z" fill="#666563"/>
</svg>
