<svg width="18" height="18" viewBox="0 0 18 18" fill="none" xmlns="http://www.w3.org/2000/svg">
<path d="M3.44784 5.46942C3.76219 2.64032 6.15349 0.5 9 0.5V0.5C11.8465 0.5 14.2378 2.64032 14.5522 5.46942L14.804 7.73563C14.8072 7.76452 14.8088 7.77897 14.8104 7.79326C14.9394 8.91695 15.3051 10.0005 15.8836 10.9725C15.8909 10.9849 15.8984 10.9973 15.9133 11.0222L16.4914 11.9856C17.0159 12.8599 17.2782 13.297 17.2216 13.6559C17.1839 13.8946 17.061 14.1117 16.8757 14.2668C16.5971 14.5 16.0873 14.5 15.0678 14.5H2.93223C1.91268 14.5 1.40291 14.5 1.12434 14.2668C0.938974 14.1117 0.816085 13.8946 0.778411 13.6559C0.721791 13.297 0.984068 12.8599 1.50862 11.9856L2.08665 11.0222C2.10161 10.9973 2.10909 10.9849 2.11644 10.9725C2.69488 10.0005 3.06064 8.91695 3.18959 7.79326C3.19123 7.77897 3.19283 7.76452 3.19604 7.73563L3.44784 5.46942Z" fill="white" stroke="#FF7700"/>
<path d="M6.10222 14.9059C6.27315 15.6501 6.64978 16.3077 7.17372 16.7767C7.69765 17.2458 8.3396 17.5 9 17.5C9.6604 17.5 10.3024 17.2458 10.8263 16.7767C11.3502 16.3077 11.7269 15.6501 11.8978 14.9059" stroke="#FF7700" stroke-linecap="round"/>
</svg>
