<svg width="25" height="24" viewBox="0 0 25 24" fill="none" xmlns="http://www.w3.org/2000/svg">
<path d="M20.6667 12C20.6667 8.22876 20.6667 6.34315 19.4952 5.17157C18.3236 4 16.438 4 12.6667 4V4C8.89551 4 7.00989 4 5.83832 5.17157C4.66675 6.34315 4.66675 8.22876 4.66675 12V18C4.66675 18.9428 4.66675 19.4142 4.95964 19.7071C5.25253 20 5.72394 20 6.66675 20H12.6667C16.438 20 18.3236 20 19.4952 18.8284C20.6667 17.6569 20.6667 15.7712 20.6667 12V12Z" stroke="#666563"/>
<path d="M9.66675 10L15.6667 10" stroke="#666563" stroke-linecap="round" stroke-linejoin="round"/>
<path d="M9.66675 14H12.6667" stroke="#666563" stroke-linecap="round" stroke-linejoin="round"/>
</svg>
