<svg width="26" height="26" viewBox="0 0 26 26" fill="none" xmlns="http://www.w3.org/2000/svg">
<path fill-rule="evenodd" clip-rule="evenodd" d="M13.4051 22.5518C15.1166 21.68 21.6666 17.9829 21.6666 12.4584C21.6666 7.58337 17.6221 4.33337 12.9999 4.33337C8.53255 4.33337 4.33325 7.58337 4.33325 12.4584C4.33325 17.9829 10.8832 21.68 12.5947 22.5518C12.8519 22.6828 13.1479 22.6828 13.4051 22.5518ZM12.7493 15.9863L9.71757 12.7949C9.0997 12.1445 9.00305 11.1574 9.48304 10.3995C10.2824 9.13732 12.1441 9.19992 12.8569 10.5129L12.9324 10.6519C12.9614 10.7055 13.0384 10.7055 13.0675 10.6519L13.1429 10.5129C13.8557 9.19992 15.7174 9.13732 16.5168 10.3995C16.9968 11.1574 16.9001 12.1445 16.2823 12.7949L13.2505 15.9863C13.1394 16.1032 13.0838 16.1617 13.0145 16.1673C13.0048 16.1681 12.995 16.1681 12.9853 16.1673C12.916 16.1617 12.8604 16.1032 12.7493 15.9863Z" fill="#FF7700"/>
</svg>
