<svg width="25" height="24" viewBox="0 0 25 24" fill="none" xmlns="http://www.w3.org/2000/svg">
<path fill-rule="evenodd" clip-rule="evenodd" d="M2.5 12C2.5 6.47715 6.97715 2 12.5 2C18.0228 2 22.5 6.47715 22.5 12C22.5 15.0141 21.1665 17.7167 19.0573 19.5501C18.5996 18.3251 17.806 17.2481 16.7613 16.4465C15.5388 15.5085 14.0409 15 12.5 15C10.9591 15 9.46118 15.5085 8.23867 16.4465C7.19405 17.2481 6.40038 18.3251 5.94269 19.5501C3.83349 17.7167 2.5 15.0141 2.5 12ZM17.3296 20.7059C17.3337 20.7212 17.3381 20.7363 17.3429 20.7512C15.9081 21.5469 14.257 22 12.5 22C10.743 22 9.09193 21.5469 7.65711 20.7512C7.66185 20.7363 7.66628 20.7212 7.67037 20.7059C7.95525 19.6427 8.58297 18.7033 9.45619 18.0332C10.3294 17.3632 11.3993 17 12.5 17C13.6007 17 14.6706 17.3632 15.5438 18.0332C16.417 18.7033 17.0448 19.6427 17.3296 20.7059ZM10.5 9C10.5 7.89543 11.3954 7 12.5 7C13.6046 7 14.5 7.89543 14.5 9C14.5 10.1046 13.6046 11 12.5 11C11.3954 11 10.5 10.1046 10.5 9ZM12.5 5C10.2909 5 8.5 6.79086 8.5 9C8.5 11.2091 10.2909 13 12.5 13C14.7091 13 16.5 11.2091 16.5 9C16.5 6.79086 14.7091 5 12.5 5Z" fill="#FF7700"/>
<rect x="3" y="2.5" width="19" height="19" rx="9.5" stroke="#FF7700"/>
</svg>
