<svg width="83" height="18" viewBox="0 0 83 18" fill="none" xmlns="http://www.w3.org/2000/svg">
<path d="M6.512 17.288C5.04 17.288 3.856 17.016 2.96 16.472C2.08 15.912 1.44 15.16 1.04 14.216C0.64 13.256 0.44 12.192 0.44 11.024C0.44 9.6 0.656 8.28 1.088 7.064C1.536 5.832 2.152 4.76 2.936 3.848C3.736 2.936 4.672 2.224 5.744 1.712C6.832 1.2 8.024 0.943999 9.32 0.943999C10.776 0.943999 11.952 1.24 12.848 1.832C13.744 2.408 14.4 3.168 14.816 4.112C15.232 5.056 15.44 6.072 15.44 7.16C15.44 8.696 15.216 10.088 14.768 11.336C14.32 12.568 13.688 13.632 12.872 14.528C12.072 15.408 11.128 16.088 10.04 16.568C8.952 17.048 7.776 17.288 6.512 17.288ZM6.8 16.256C7.584 16.256 8.296 16.112 8.936 15.824C9.576 15.52 10.144 15.096 10.64 14.552C11.152 14.008 11.584 13.36 11.936 12.608C12.288 11.84 12.552 10.992 12.728 10.064C12.904 9.136 12.992 8.136 12.992 7.064C12.992 5.368 12.64 4.096 11.936 3.248C11.248 2.4 10.288 1.976 9.056 1.976C8.112 1.976 7.256 2.216 6.488 2.696C5.736 3.16 5.088 3.816 4.544 4.664C4.016 5.512 3.608 6.488 3.32 7.592C3.048 8.696 2.912 9.888 2.912 11.168C2.912 12.112 3.024 12.976 3.248 13.76C3.488 14.528 3.888 15.136 4.448 15.584C5.024 16.032 5.808 16.256 6.8 16.256ZM29.3368 17.192H28.5448L21.2968 3.968L20.7448 3.536C20.5048 3.104 20.2888 2.776 20.0968 2.552C19.9048 2.312 19.6808 2.152 19.4248 2.072C19.1848 1.992 18.8648 1.952 18.4648 1.952L18.6088 1.232H22.3768L28.8568 13.04H28.9768L30.6328 5.048C30.7928 4.232 30.8648 3.6 30.8488 3.152C30.8328 2.704 30.6808 2.392 30.3928 2.216C30.1048 2.04 29.6248 1.952 28.9528 1.952L29.0968 1.232H34.7608L34.6168 1.952C34.0248 1.952 33.5448 2.064 33.1768 2.288C32.8248 2.496 32.5448 2.84 32.3368 3.32C32.1288 3.784 31.9448 4.4 31.7848 5.168L29.3368 17.192ZM20.9848 17H15.4647L15.6087 16.28C16.2327 16.28 16.7128 16.216 17.0488 16.088C17.3848 15.944 17.6408 15.664 17.8168 15.248C17.9928 14.832 18.1608 14.224 18.3208 13.424L20.5528 2.6L22.2328 4.304H21.3688L19.4967 13.424C19.3368 14.224 19.2728 14.832 19.3048 15.248C19.3368 15.648 19.4968 15.92 19.7848 16.064C20.0888 16.208 20.5368 16.28 21.1288 16.28L20.9848 17ZM44.6456 17H32.7896L32.9336 16.28C33.5576 16.28 34.0296 16.224 34.3496 16.112C34.6856 16 34.9416 15.784 35.1176 15.464C35.2936 15.144 35.4456 14.664 35.5736 14.024L37.6376 4.016C37.7496 3.488 37.7896 3.072 37.7576 2.768C37.7256 2.464 37.5576 2.256 37.2536 2.144C36.9656 2.016 36.4776 1.952 35.7896 1.952L35.9336 1.232H42.7496L42.6296 1.952C42.0536 1.952 41.5736 2.008 41.1896 2.12C40.8216 2.216 40.5256 2.416 40.3016 2.72C40.0776 3.024 39.9016 3.464 39.7736 4.04L37.5896 14.792C37.4776 15.32 37.5336 15.672 37.7576 15.848C37.9816 16.008 38.4456 16.088 39.1496 16.088H40.2776C41.0456 16.088 41.6696 16.024 42.1496 15.896C42.6296 15.752 43.0376 15.536 43.3736 15.248C43.7096 14.96 44.0216 14.576 44.3096 14.096C44.6136 13.6 44.9496 13.008 45.3176 12.32H46.0856L44.6456 17ZM58.7039 4.328L53.7599 10.496L53.3279 9.344L58.0079 3.536C58.1359 3.376 58.2479 3.208 58.3439 3.032C58.4559 2.84 58.5119 2.664 58.5119 2.504C58.5119 2.328 58.4159 2.192 58.2239 2.096C58.0479 2 57.6719 1.952 57.0959 1.952L57.2399 1.232H62.4959L62.3519 1.952C61.8719 1.984 61.4559 2.064 61.1039 2.192C60.7679 2.32 60.4159 2.544 60.0479 2.864C59.6799 3.184 59.2319 3.672 58.7039 4.328ZM55.0559 17H47.9999L48.1199 16.28C48.8399 16.28 49.3839 16.232 49.7519 16.136C50.1199 16.024 50.3919 15.792 50.5679 15.44C50.7439 15.088 50.9039 14.56 51.0479 13.856L52.0319 9.104H54.1919L53.2079 13.856C53.1599 14.112 53.1199 14.336 53.0879 14.528C53.0559 14.72 53.0399 14.904 53.0399 15.08C53.0399 15.576 53.2079 15.904 53.5439 16.064C53.8799 16.208 54.4239 16.28 55.1759 16.28L55.0559 17ZM53.5199 9.464L51.9119 10.736L49.7039 5.216C49.3039 4.208 48.9519 3.48 48.6479 3.032C48.3439 2.568 48.0399 2.272 47.7359 2.144C47.4479 2.016 47.1039 1.952 46.7039 1.952L46.8479 1.232H53.0399L52.8959 1.952C52.2239 1.952 51.7599 2.016 51.5039 2.144C51.2479 2.272 51.1199 2.424 51.1199 2.6C51.1199 2.76 51.1439 2.928 51.1919 3.104C51.2399 3.264 51.2959 3.432 51.3599 3.608L52.7519 7.112L53.5199 9.464ZM62.9362 17.24C62.0562 17.24 61.3042 17.048 60.6802 16.664C60.0722 16.28 59.6082 15.752 59.2882 15.08C58.9842 14.392 58.8322 13.592 58.8322 12.68C58.8322 11.72 58.9762 10.808 59.2642 9.944C59.5682 9.08 59.9842 8.32 60.5122 7.664C61.0402 6.992 61.6642 6.464 62.3842 6.08C63.1042 5.696 63.8882 5.504 64.7362 5.504C65.6962 5.504 66.4802 5.72 67.0882 6.152C67.6962 6.584 68.1442 7.152 68.4322 7.856C68.7202 8.56 68.8642 9.336 68.8642 10.184C68.8642 11.144 68.7122 12.048 68.4082 12.896C68.1042 13.744 67.6802 14.496 67.1362 15.152C66.6082 15.792 65.9842 16.304 65.2642 16.688C64.5442 17.056 63.7682 17.24 62.9362 17.24ZM63.1762 16.4C63.7522 16.4 64.2562 16.2 64.6882 15.8C65.1362 15.384 65.5042 14.856 65.7922 14.216C66.0962 13.56 66.3202 12.856 66.4642 12.104C66.6242 11.336 66.7042 10.592 66.7042 9.872C66.7042 9.216 66.6402 8.624 66.5122 8.096C66.4002 7.552 66.1922 7.12 65.8882 6.8C65.5842 6.48 65.1442 6.32 64.5682 6.32C63.9442 6.32 63.4002 6.528 62.9362 6.944C62.4882 7.344 62.1122 7.872 61.8082 8.528C61.5202 9.184 61.3042 9.904 61.1602 10.688C61.0162 11.456 60.9442 12.208 60.9442 12.944C60.9442 13.536 61.0002 14.096 61.1122 14.624C61.2402 15.152 61.4642 15.584 61.7842 15.92C62.1202 16.24 62.5842 16.4 63.1762 16.4ZM72.5926 17.24C71.9846 17.24 71.5686 17.064 71.3446 16.712C71.1206 16.36 71.0086 15.96 71.0086 15.512C71.0086 15.192 71.0406 14.864 71.1046 14.528C71.1686 14.176 71.2166 13.92 71.2486 13.76L72.4006 8.6C72.4006 8.6 72.4166 8.504 72.4486 8.312C72.4966 8.12 72.5366 7.904 72.5686 7.664C72.6166 7.424 72.6406 7.232 72.6406 7.088C72.6406 6.832 72.5446 6.664 72.3526 6.584C72.1766 6.488 71.9846 6.44 71.7766 6.44C71.6166 6.44 71.4726 6.448 71.3446 6.464C71.2166 6.464 71.0886 6.472 70.9606 6.488V5.84L74.2006 5.576H74.9446L73.2886 13.376C73.2886 13.376 73.2566 13.512 73.1926 13.784C73.1446 14.056 73.1206 14.304 73.1206 14.528C73.1206 14.816 73.1766 15.056 73.2886 15.248C73.4006 15.424 73.5846 15.512 73.8406 15.512C74.1926 15.512 74.5686 15.36 74.9686 15.056C75.3846 14.752 75.7926 14.352 76.1926 13.856C76.6086 13.36 76.9926 12.824 77.3446 12.248C77.6966 11.672 78.0006 11.104 78.2566 10.544C78.5126 9.968 78.6886 9.464 78.7846 9.032L79.5526 5.648H81.5446L79.7686 14.144C79.7686 14.144 79.7446 14.272 79.6966 14.528C79.6486 14.784 79.6246 15 79.6246 15.176C79.6246 15.272 79.6566 15.368 79.7206 15.464C79.8006 15.544 79.9366 15.584 80.1286 15.584C80.4166 15.584 80.6886 15.48 80.9446 15.272C81.2166 15.064 81.4406 14.856 81.6166 14.648C81.7926 14.44 81.8806 14.336 81.8806 14.336L82.3846 14.696C82.0326 15.208 81.6886 15.656 81.3526 16.04C81.0166 16.408 80.6566 16.696 80.2726 16.904C79.9046 17.112 79.4726 17.216 78.9766 17.216C78.6566 17.216 78.3366 17.136 78.0166 16.976C77.6966 16.8 77.5366 16.448 77.5366 15.92C77.5366 15.36 77.6086 14.808 77.7526 14.264C77.9126 13.72 78.0966 13.056 78.3046 12.272H78.0886C77.8486 12.688 77.5526 13.176 77.2006 13.736C76.8646 14.296 76.4726 14.848 76.0246 15.392C75.5766 15.92 75.0646 16.36 74.4886 16.712C73.9286 17.064 73.2966 17.24 72.5926 17.24Z" fill="#FF7700"/>
</svg>
