<svg width="16" height="17" viewBox="0 0 16 17" fill="none" xmlns="http://www.w3.org/2000/svg">
<path d="M8.5 1.8335C8.5 1.70089 8.44732 1.57371 8.35355 1.47994C8.25978 1.38617 8.13261 1.3335 8 1.3335C7.86739 1.3335 7.74022 1.38617 7.64645 1.47994C7.55268 1.57371 7.5 1.70089 7.5 1.8335V3.8335C7.5 3.9661 7.55268 4.09328 7.64645 4.18705C7.74022 4.28082 7.86739 4.3335 8 4.3335C8.13261 4.3335 8.25978 4.28082 8.35355 4.18705C8.44732 4.09328 8.5 3.9661 8.5 3.8335V1.8335Z" fill="#FFB0AC"/>
<path fill-rule="evenodd" clip-rule="evenodd" d="M1.3335 14.6668H2.66683V11.1668C2.66683 9.75234 3.22873 8.39579 4.22893 7.39559C5.22912 6.3954 6.58567 5.8335 8.00016 5.8335C9.41465 5.8335 10.7712 6.3954 11.7714 7.39559C12.7716 8.39579 13.3335 9.75234 13.3335 11.1668V14.6668H14.6668C14.7994 14.6668 14.9266 14.7195 15.0204 14.8133C15.1142 14.907 15.1668 15.0342 15.1668 15.1668C15.1668 15.2994 15.1142 15.4266 15.0204 15.5204C14.9266 15.6142 14.7994 15.6668 14.6668 15.6668H1.3335C1.20089 15.6668 1.07371 15.6142 0.979943 15.5204C0.886175 15.4266 0.833496 15.2994 0.833496 15.1668C0.833496 15.0342 0.886175 14.907 0.979943 14.8133C1.07371 14.7195 1.20089 14.6668 1.3335 14.6668ZM8.50016 13.0335C8.6908 12.9234 8.8398 12.7535 8.92404 12.5502C9.00828 12.3468 9.02306 12.1213 8.96609 11.9087C8.90911 11.696 8.78357 11.5081 8.60892 11.3741C8.43428 11.2401 8.2203 11.1675 8.00016 11.1675C7.78003 11.1675 7.56605 11.2401 7.3914 11.3741C7.21676 11.5081 7.09121 11.696 7.03424 11.9087C6.97726 12.1213 6.99204 12.3468 7.07628 12.5502C7.16052 12.7535 7.30952 12.9234 7.50016 13.0335V14.6668H8.50016V13.0335ZM9.0635 7.9795C9.08812 7.91859 9.1245 7.86313 9.17057 7.81629C9.21663 7.76946 9.27148 7.73215 9.33197 7.70652C9.39246 7.68089 9.4574 7.66743 9.5231 7.66691C9.58879 7.66639 9.65394 7.67882 9.71483 7.7035C10.1084 7.86322 10.466 8.10028 10.7664 8.40064C11.0667 8.701 11.3038 9.05856 11.4635 9.45216C11.5101 9.57441 11.507 9.71008 11.4548 9.83004C11.4025 9.95001 11.3053 10.0447 11.184 10.0938C11.0628 10.143 10.9271 10.1426 10.8061 10.0928C10.6851 10.043 10.5884 9.94775 10.5368 9.8275C10.4274 9.55803 10.2651 9.31324 10.0594 9.10759C9.85375 8.90193 9.60896 8.73959 9.3395 8.63016C9.21665 8.58043 9.11858 8.48396 9.06682 8.36195C9.01507 8.23995 9.01388 8.10239 9.0635 7.9795Z" fill="#FFB0AC"/>
<path d="M14.3536 4.14671C14.4472 4.24047 14.4998 4.36755 14.4998 4.50005C14.4998 4.63255 14.4472 4.75963 14.3536 4.85338L13.3536 5.85338C13.3078 5.90251 13.2526 5.94191 13.1912 5.96924C13.1299 5.99656 13.0637 6.01126 12.9966 6.01244C12.9294 6.01363 12.8628 6.00128 12.8005 5.97613C12.7382 5.95098 12.6817 5.91355 12.6342 5.86607C12.5867 5.81859 12.5493 5.76204 12.5241 5.69978C12.499 5.63752 12.4866 5.57084 12.4878 5.5037C12.489 5.43656 12.5037 5.37036 12.531 5.30902C12.5584 5.24769 12.5978 5.19249 12.6469 5.14671L13.6469 4.14671C13.7406 4.05308 13.8677 4.00049 14.0002 4.00049C14.1327 4.00049 14.2598 4.05308 14.3536 4.14671ZM2.35356 4.14671C2.25877 4.05839 2.13341 4.01031 2.00387 4.0126C1.87434 4.01488 1.75075 4.06736 1.65914 4.15897C1.56753 4.25058 1.51506 4.37417 1.51277 4.5037C1.51049 4.63323 1.55857 4.7586 1.64689 4.85338L2.64689 5.85338C2.74167 5.9417 2.86704 5.98978 2.99657 5.9875C3.12611 5.98521 3.2497 5.93274 3.3413 5.84113C3.43291 5.74952 3.48539 5.62593 3.48767 5.4964C3.48996 5.36686 3.44188 5.2415 3.35356 5.14671L2.35356 4.14671Z" fill="#FFB0AC"/>
</svg>
